<?xml version="1.0" standalone="no"?>
<!DOCTYPE svg PUBLIC "-//W3C//DTD SVG 20010904//EN"
 "http://www.w3.org/TR/2001/REC-SVG-20010904/DTD/svg10.dtd">
<svg version="1.0" xmlns="http://www.w3.org/2000/svg"
 width="552.000000pt" height="552.000000pt" viewBox="0 0 552.000000 552.000000"
 preserveAspectRatio="xMidYMid meet">
<metadata>
Created by potrace 1.13, written by Peter Selinger 2001-2015
</metadata>
<g transform="translate(0.000000,552.000000) scale(0.100000,-0.100000)"
fill="#000000" stroke="none">
<path d="M1685 4358 c-105 -14 -228 -39 -300 -60 -465 -134 -842 -477 -1017
-923 -43 -109 -80 -233 -92 -310 -6 -40 -18 -114 -23 -145 -9 -52 -10 -408 -2
-475 11 -86 18 -133 24 -165 3 -14 10 -46 15 -72 9 -46 51 -182 69 -223 89
-202 172 -327 310 -465 218 -218 465 -340 801 -396 150 -25 525 -25 735 0 109
13 286 59 402 103 l93 36 0 323 0 324 -87 -45 c-96 -48 -272 -110 -343 -120
-24 -4 -47 -8 -51 -10 -28 -18 -370 -27 -464 -12 -342 54 -598 272 -706 602
-43 134 -58 246 -55 425 4 204 30 330 99 480 115 250 341 432 623 502 71 17
121 21 244 22 185 1 256 -6 382 -38 109 -28 206 -65 296 -113 l62 -34 -2 343
-3 342 -47 17 c-26 9 -71 23 -100 30 -62 15 -52 13 -108 23 -25 5 -54 10 -65
12 -11 3 -45 7 -75 10 -30 3 -81 9 -114 13 -78 11 -426 10 -501 -1z"/>
<path d="M3520 2725 l0 -1185 105 0 105 0 0 1185 0 1185 -105 0 -105 0 0
-1185z"/>
<path d="M4130 2720 l0 -920 105 0 105 0 0 920 0 920 -105 0 -105 0 0 -920z"/>
<path d="M4680 2730 l0 -650 105 0 105 0 0 650 0 650 -105 0 -105 0 0 -650z"/>
<path d="M5140 2735 l0 -395 105 0 105 0 0 395 0 395 -105 0 -105 0 0 -395z"/>
<path d="M2913 3070 c-156 -51 -245 -172 -252 -341 -6 -175 86 -303 249 -345
86 -22 221 -14 308 17 l62 23 0 178 0 178 -150 0 -150 0 0 -65 0 -65 70 0 70
0 0 -70 c0 -38 -1 -70 -2 -70 -114 -17 -168 -7 -223 42 -61 53 -83 188 -47
280 19 46 84 103 134 117 59 17 165 8 224 -19 l44 -19 0 74 0 74 -42 12 c-70
20 -234 20 -295 -1z"/>
<path d="M1150 2730 l0 -350 71 0 70 0 -3 265 c-2 146 -1 265 2 265 3 0 19
-44 37 -98 39 -121 141 -411 149 -423 7 -12 134 -12 134 0 0 5 5 22 12 38 6
15 12 33 14 38 8 28 152 447 155 450 2 2 3 -118 1 -266 l-3 -269 81 0 80 0 0
350 0 350 -114 0 -114 0 -26 -72 c-73 -205 -136 -394 -136 -410 0 -22 -15 -32
-17 -10 -1 9 -9 40 -18 67 -39 116 -117 343 -132 383 l-16 42 -113 0 -114 0 0
-350z"/>
<path d="M2050 3015 l0 -65 100 0 100 0 0 -285 0 -285 80 0 80 0 0 285 0 285
100 0 100 0 0 65 0 65 -280 0 -280 0 0 -65z"/>
</g>
</svg>
